<svg width="30" height="26" viewBox="0 0 30 26" fill="none" xmlns="http://www.w3.org/2000/svg">
<g clip-path="url(#clip0_95_1876)">
<path d="M26.6667 3.61133H3.33333C2.44928 3.61133 1.60143 3.91569 0.976311 4.45746C0.35119 4.99924 0 5.73404 0 6.50022L0 13.0002H30V6.50022C30 5.73404 29.6488 4.99924 29.0237 4.45746C28.3986 3.91569 27.5507 3.61133 26.6667 3.61133Z" fill="#DC1F26"/>
<path d="M30 19.5C30 20.2662 29.6488 21.001 29.0237 21.5428C28.3986 22.0845 27.5507 22.3889 26.6667 22.3889H3.33333C2.44928 22.3889 1.60143 22.0845 0.976311 21.5428C0.35119 21.001 0 20.2662 0 19.5V13H30V19.5Z" fill="#EEEEEE"/>
</g>
<defs>
<clipPath id="clip0_95_1876">
<rect width="30" height="26" fill="white"/>
</clipPath>
</defs>
</svg>
